<svg width="21" height="20" viewBox="0 0 21 20" fill="none" xmlns="http://www.w3.org/2000/svg">
<path d="M14.5209 10.7093C15.5007 9.93843 16.2159 8.8813 16.567 7.68501C16.918 6.48872 16.8875 5.21276 16.4796 4.03464C16.0717 2.85652 15.3067 1.83483 14.2911 1.11171C13.2755 0.388591 12.0598 0 10.8131 0C9.56633 0 8.35059 0.388591 7.33499 1.11171C6.31939 1.83483 5.55443 2.85652 5.14654 4.03464C4.73864 5.21276 4.70809 6.48872 5.05914 7.68501C5.41018 8.8813 6.12537 9.93843 7.1052 10.7093C5.42624 11.382 3.9613 12.4976 2.86653 13.9374C1.77177 15.3771 1.08823 17.0869 0.88878 18.8846C0.874343 19.0159 0.885898 19.1487 0.922786 19.2754C0.959673 19.4022 1.02117 19.5205 1.10377 19.6235C1.27058 19.8316 1.5132 19.9648 1.77827 19.994C2.04333 20.0231 2.30912 19.9458 2.51717 19.779C2.72521 19.6122 2.85847 19.3695 2.88763 19.1045C3.10709 17.1508 4.03865 15.3465 5.50434 14.0362C6.97003 12.7259 8.86708 12.0016 10.833 12.0016C12.799 12.0016 14.6961 12.7259 16.1618 14.0362C17.6274 15.3465 18.559 17.1508 18.7785 19.1045C18.8056 19.3501 18.9228 19.5769 19.1074 19.7411C19.2919 19.9054 19.5308 19.9955 19.7779 19.994H19.8878C20.1498 19.9638 20.3893 19.8314 20.554 19.6254C20.7187 19.4195 20.7954 19.1568 20.7673 18.8946C20.5669 17.0918 19.8797 15.3776 18.7793 13.9357C17.6789 12.4937 16.2069 11.3784 14.5209 10.7093ZM10.8131 9.99973C10.0224 9.99973 9.24948 9.76527 8.59206 9.326C7.93464 8.88672 7.42224 8.26237 7.11967 7.53189C6.81709 6.8014 6.73793 5.9976 6.89218 5.22212C7.04643 4.44665 7.42717 3.73433 7.98626 3.17524C8.54535 2.61615 9.25767 2.23541 10.0331 2.08115C10.8086 1.9269 11.6124 2.00607 12.3429 2.30865C13.0734 2.61122 13.6977 3.12362 14.137 3.78103C14.5763 4.43845 14.8108 5.21137 14.8108 6.00204C14.8108 7.06229 14.3896 8.07912 13.6399 8.82883C12.8901 9.57855 11.8733 9.99973 10.8131 9.99973Z" fill="black"/>
</svg>
