<svg width="21" height="20" viewBox="0 0 21 20" fill="none" xmlns="http://www.w3.org/2000/svg">
<path d="M4.81608 2.22222C4.88275 3.21111 5.04942 4.17778 5.31608 5.1L3.98275 6.43333C3.5272 5.1 3.23831 3.68889 3.13831 2.22222H4.81608ZM15.7716 15.5778C16.7161 15.8444 17.6828 16.0111 18.6605 16.0778V17.7333C17.1939 17.6333 15.7828 17.3444 14.4383 16.9L15.7716 15.5778ZM5.88275 0H1.99386C1.38275 0 0.882751 0.5 0.882751 1.11111C0.882751 11.5444 9.33831 20 19.7716 20C20.3828 20 20.8828 19.5 20.8828 18.8889V15.0111C20.8828 14.4 20.3828 13.9 19.7716 13.9C18.3939 13.9 17.0494 13.6778 15.805 13.2667C15.6939 13.2222 15.5716 13.2111 15.4605 13.2111C15.1716 13.2111 14.8939 13.3222 14.6716 13.5333L12.2272 15.9778C9.08275 14.3667 6.50497 11.8 4.90497 8.65556L7.34942 6.21111C7.66053 5.9 7.74942 5.46667 7.6272 5.07778C7.21608 3.83333 6.99386 2.5 6.99386 1.11111C6.99386 0.5 6.49386 0 5.88275 0Z" fill="black"/>
</svg>
