<svg width="30" height="26" viewBox="0 0 30 26" fill="none" xmlns="http://www.w3.org/2000/svg">
<path d="M14.5071 25.4822L2.28723 12.5104C-4.53171 5.27189 5.45421 -4.52914 11.9102 2.3198L14.2781 4.89823C14.4344 5.13907 14.6435 5.33598 14.8874 5.47201C15.1313 5.60805 15.4026 5.67912 15.6781 5.67912C15.9536 5.67912 16.225 5.60805 16.4689 5.47201C16.7127 5.33598 16.9218 5.13907 17.0781 4.89823L19.8551 1.98966C19.9788 1.81354 20.1354 1.66634 20.3151 1.55723C20.4947 1.44812 20.6936 1.37944 20.8993 1.35546C21.1051 1.33148 21.3133 1.35272 21.5109 1.41786C21.7086 1.48299 21.8916 1.59063 22.0483 1.73406C22.2051 1.87749 22.3324 2.05365 22.4223 2.25157C22.5122 2.44949 22.5627 2.66493 22.5708 2.88448C22.5788 3.10403 22.5442 3.32299 22.469 3.52772C22.3939 3.73245 22.2799 3.91857 22.1341 4.07449L15.5241 11.1442C14.3171 12.4255 15.9101 13.9551 17.0531 12.7429L18.7641 10.9744C18.8918 10.7973 19.0532 10.6508 19.2379 10.5445C19.4225 10.4382 19.6262 10.3743 19.8357 10.3572C20.0451 10.3401 20.2556 10.3701 20.4534 10.4452C20.6512 10.5203 20.8319 10.6388 20.9836 10.793C21.1353 10.9472 21.2547 11.1337 21.334 11.3402C21.4132 11.5467 21.4505 11.7687 21.4435 11.9916C21.4365 12.2144 21.3852 12.4332 21.2931 12.6336C21.201 12.8341 21.0702 13.0116 20.9091 13.1547L15.7571 18.6619C14.4701 20.0281 15.9091 21.7064 17.2221 20.3115L24.503 12.7429C26.247 10.8916 28.149 13.3267 26.661 14.9063L16.8421 25.4864C16.5321 25.8153 16.1118 26 15.6736 26C15.2354 26 14.8151 25.8153 14.5051 25.4864L14.5071 25.4822ZM26.878 10.312C26.878 9.98426 26.9696 9.66389 27.1411 9.39139C27.3126 9.11889 27.5564 8.9065 27.8416 8.78109C28.1269 8.65567 28.4407 8.62286 28.7435 8.68679C29.0463 8.75073 29.3245 8.90855 29.5428 9.14029C29.7611 9.37203 29.9098 9.66728 29.97 9.98872C30.0302 10.3102 29.9993 10.6433 29.8812 10.9461C29.763 11.2489 29.563 11.5077 29.3062 11.6898C29.0495 11.8718 28.7477 11.969 28.439 11.969C28.025 11.969 27.628 11.7944 27.3352 11.4837C27.0425 11.1729 26.878 10.7515 26.878 10.312ZM22.1471 7.47454C23.7371 5.78672 25.421 3.97152 27.11 2.17755C28.799 0.383581 30.853 2.56076 29.251 4.26132C27.649 5.96187 24.178 9.59015 24.178 9.59015C24.0244 9.76652 23.8391 9.90854 23.633 10.0079C23.427 10.1072 23.2043 10.1619 22.9781 10.1687C22.6808 10.1716 22.3904 10.074 22.1489 9.89C21.9074 9.70602 21.7274 9.44523 21.6348 9.14538C21.5423 8.84553 21.542 8.52219 21.6341 8.22218C21.7262 7.92217 21.9059 7.66106 22.1471 7.47666V7.47454Z" fill="#1D34FF"/>
</svg>
