<svg width="26" height="20" viewBox="0 0 26 20" fill="none" xmlns="http://www.w3.org/2000/svg">
<path d="M1.17687 9.41177H8.2357C8.54772 9.41177 8.84695 9.28782 9.06759 9.06718C9.28822 8.84655 9.41217 8.54731 9.41217 8.23529V1.17647C9.41217 0.864451 9.28822 0.565211 9.06759 0.34458C8.84695 0.123949 8.54772 0 8.2357 0H1.17687C0.864852 0 0.565612 0.123949 0.344981 0.34458C0.12435 0.565211 0.000400868 0.864451 0.000400868 1.17647V8.23529C0.000400868 8.54731 0.12435 8.84655 0.344981 9.06718C0.565612 9.28782 0.864852 9.41177 1.17687 9.41177ZM2.35334 2.35294H7.05923V7.05882H2.35334V2.35294ZM24.7063 3.52941H12.9416C12.6296 3.52941 12.3303 3.65336 12.1097 3.87399C11.8891 4.09462 11.7651 4.39386 11.7651 4.70588C11.7651 5.0179 11.8891 5.31714 12.1097 5.53777C12.3303 5.7584 12.6296 5.88235 12.9416 5.88235H24.7063C25.0183 5.88235 25.3175 5.7584 25.5382 5.53777C25.7588 5.31714 25.8828 5.0179 25.8828 4.70588C25.8828 4.39386 25.7588 4.09462 25.5382 3.87399C25.3175 3.65336 25.0183 3.52941 24.7063 3.52941ZM24.7063 15.2941H12.9416C12.6296 15.2941 12.3303 15.4181 12.1097 15.6387C11.8891 15.8593 11.7651 16.1586 11.7651 16.4706C11.7651 16.7826 11.8891 17.0819 12.1097 17.3025C12.3303 17.5231 12.6296 17.6471 12.9416 17.6471H24.7063C25.0183 17.6471 25.3175 17.5231 25.5382 17.3025C25.7588 17.0819 25.8828 16.7826 25.8828 16.4706C25.8828 16.1586 25.7588 15.8593 25.5382 15.6387C25.3175 15.4181 25.0183 15.2941 24.7063 15.2941ZM3.46158 20H3.4757C3.78416 19.999 4.0799 19.8769 4.29922 19.66L9.05923 14.9541C9.18135 14.849 9.28059 14.7199 9.35078 14.5749C9.42097 14.4299 9.46062 14.272 9.46727 14.111C9.47392 13.95 9.44743 13.7893 9.38944 13.639C9.33145 13.4887 9.2432 13.3518 9.13015 13.237C9.01711 13.1222 8.88168 13.0318 8.73228 12.9715C8.58287 12.9112 8.42266 12.8822 8.26158 12.8863C8.1005 12.8905 7.942 12.9276 7.79588 12.9956C7.64977 13.0635 7.51916 13.1607 7.41217 13.2812L3.4957 17.1506L2.02275 15.6212C1.9153 15.5101 1.78702 15.4213 1.64524 15.3598C1.50346 15.2982 1.35095 15.2653 1.19642 15.2627C0.884338 15.2575 0.582978 15.3765 0.358636 15.5935C0.134294 15.8105 0.00534742 16.1078 0.00016259 16.4199C-0.00502224 16.7319 0.11398 17.0333 0.330989 17.2576L2.62981 19.6471C2.73835 19.7578 2.86772 19.846 3.01046 19.9066C3.15321 19.9671 3.30652 19.9989 3.46158 20Z" fill="black"/>
</svg>
