<svg width="31" height="31" viewBox="0 0 31 31" fill="none" xmlns="http://www.w3.org/2000/svg">
<path d="M29.3994 15.5C30.2834 15.5 31.0086 16.2185 30.9174 17.0978C30.6132 20.0336 29.4753 22.8337 27.6222 25.1593C25.4352 27.9039 22.3817 29.8251 18.961 30.6087C15.5403 31.3923 11.9549 30.9918 8.79129 29.4729C5.62771 27.954 3.07319 25.4066 1.54558 22.2472C0.0179749 19.0878 -0.392303 15.5035 0.381861 12.0807C1.15602 8.6578 3.0688 5.59896 5.80733 3.40446C8.54585 1.20997 11.948 0.00972456 15.4573 5.87936e-05C18.4309 -0.00813154 21.3323 0.838936 23.8223 2.42368C24.568 2.89832 24.6809 3.91292 24.1319 4.60577C23.5829 5.29863 22.5805 5.40499 21.8223 4.95057C19.9109 3.80505 17.7145 3.19502 15.4661 3.20122C12.6816 3.20889 9.98207 4.16124 7.80912 5.90252C5.63618 7.64379 4.11844 10.0709 3.50417 12.7868C2.88989 15.5028 3.21543 18.3468 4.42755 20.8537C5.63967 23.3606 7.66661 25.3819 10.1768 26.5872C12.687 27.7924 15.5319 28.1101 18.2462 27.4883C20.9604 26.8666 23.3834 25.3421 25.1186 23.1644C26.5198 21.406 27.4057 19.3057 27.6948 17.0961C27.8096 16.2196 28.5154 15.5 29.3994 15.5Z" fill="#62BBCB"/>
</svg>
